<?xml version="1.0" encoding="UTF-8" standalone="no"?>
<!-- Created with Inkscape (http://www.inkscape.org/) -->

<svg
   xmlns:dc="http://purl.org/dc/elements/1.1/"
   xmlns:cc="http://creativecommons.org/ns#"
   xmlns:rdf="http://www.w3.org/1999/02/22-rdf-syntax-ns#"
   xmlns:svg="http://www.w3.org/2000/svg"
   xmlns="http://www.w3.org/2000/svg"
   xmlns:xlink="http://www.w3.org/1999/xlink"
   xmlns:sodipodi="http://sodipodi.sourceforge.net/DTD/sodipodi-0.dtd"
   xmlns:inkscape="http://www.inkscape.org/namespaces/inkscape"
   id="svg2"
   version="1.1"
   inkscape:version="0.91 r13725"
   width="615.20935"
   height="148.92641"
   viewBox="0 0 615.20935 148.92641"
   sodipodi:docname="nanoscripts.svg">
  <metadata
     id="metadata8">
    <rdf:RDF>
      <cc:Work
         rdf:about="">
        <dc:format>image/svg+xml</dc:format>
        <dc:type
           rdf:resource="http://purl.org/dc/dcmitype/StillImage" />
        <dc:title />
      </cc:Work>
    </rdf:RDF>
  </metadata>
  <defs
     id="defs6">
    <linearGradient
       inkscape:collect="always"
       id="linearGradient4379">
      <stop
         style="stop-color:#11c1e0;stop-opacity:1"
         offset="0"
         id="stop4381" />
      <stop
         id="stop4236"
         offset="0.4272911"
         style="stop-color:#11c1e0;stop-opacity:0.813" />
      <stop
         id="stop3434"
         offset="0.47830281"
         style="stop-color:#00a6a0;stop-opacity:1" />
      <stop
         style="stop-color:#00a6a0;stop-opacity:1"
         offset="1"
         id="stop4383" />
    </linearGradient>
    <linearGradient
       inkscape:collect="always"
       id="linearGradient4180">
      <stop
         style="stop-color:#00615e;stop-opacity:1"
         offset="0"
         id="stop4182" />
      <stop
         style="stop-color:#007b91;stop-opacity:1"
         offset="1"
         id="stop4184" />
    </linearGradient>
    <linearGradient
       inkscape:collect="always"
       xlink:href="#linearGradient4180"
       id="linearGradient4186"
       x1="297.79773"
       y1="-425.37598"
       x2="1265.6766"
       y2="-425.37598"
       gradientUnits="userSpaceOnUse"
       gradientTransform="matrix(0.62532292,0,0,0.62975867,-181.24203,338.58315)" />
    <linearGradient
       inkscape:collect="always"
       xlink:href="#linearGradient4379"
       id="linearGradient4385"
       x1="283.83362"
       y1="-750.86121"
       x2="870.93475"
       y2="-750.86121"
       gradientUnits="userSpaceOnUse"
       gradientTransform="matrix(0.99583912,0,0,0.53021673,-267.34779,474.31583)" />
    <filter
       style="color-interpolation-filters:sRGB"
       inkscape:label="Drop Shadow"
       id="filter5160">
      <feFlood
         flood-opacity="1"
         flood-color="rgb(0,0,0)"
         result="flood"
         id="feFlood5162" />
      <feComposite
         in="flood"
         in2="SourceGraphic"
         operator="in"
         result="composite1"
         id="feComposite5164" />
      <feGaussianBlur
         in="composite1"
         stdDeviation="6"
         result="blur"
         id="feGaussianBlur5166" />
      <feOffset
         dx="4"
         dy="4"
         result="offset"
         id="feOffset5168" />
      <feComposite
         in="SourceGraphic"
         in2="offset"
         operator="over"
         result="composite2"
         id="feComposite5170" />
    </filter>
    <filter
       style="color-interpolation-filters:sRGB"
       inkscape:label="Drop Shadow"
       id="filter5256">
      <feFlood
         flood-opacity="1"
         flood-color="rgb(0,0,0)"
         result="flood"
         id="feFlood5258" />
      <feComposite
         in="flood"
         in2="SourceGraphic"
         operator="in"
         result="composite1"
         id="feComposite5260" />
      <feGaussianBlur
         in="composite1"
         stdDeviation="6"
         result="blur"
         id="feGaussianBlur5262" />
      <feOffset
         dx="6"
         dy="6"
         result="offset"
         id="feOffset5264" />
      <feComposite
         in="SourceGraphic"
         in2="offset"
         operator="over"
         result="composite2"
         id="feComposite5266" />
    </filter>
    <filter
       style="color-interpolation-filters:sRGB"
       inkscape:label="Drop Shadow"
       id="filter4792">
      <feFlood
         flood-opacity="1"
         flood-color="rgb(0,0,0)"
         result="flood"
         id="feFlood4794" />
      <feComposite
         in="flood"
         in2="SourceGraphic"
         operator="in"
         result="composite1"
         id="feComposite4796" />
      <feGaussianBlur
         in="composite1"
         stdDeviation="3"
         result="blur"
         id="feGaussianBlur4798" />
      <feOffset
         dx="5"
         dy="5"
         result="offset"
         id="feOffset4800" />
      <feComposite
         in="SourceGraphic"
         in2="offset"
         operator="over"
         result="composite2"
         id="feComposite4802" />
    </filter>
    <filter
       style="color-interpolation-filters:sRGB"
       inkscape:label="Drop Shadow"
       id="filter4950">
      <feFlood
         flood-opacity="1"
         flood-color="rgb(0,0,0)"
         result="flood"
         id="feFlood4952" />
      <feComposite
         in="flood"
         in2="SourceGraphic"
         operator="in"
         result="composite1"
         id="feComposite4954" />
      <feGaussianBlur
         in="composite1"
         stdDeviation="3"
         result="blur"
         id="feGaussianBlur4956" />
      <feOffset
         dx="-2"
         dy="-1"
         result="offset"
         id="feOffset4958" />
      <feComposite
         in="SourceGraphic"
         in2="offset"
         operator="over"
         result="composite2"
         id="feComposite4960" />
    </filter>
    <filter
       style="color-interpolation-filters:sRGB"
       inkscape:label="Drop Shadow"
       id="filter5000">
      <feFlood
         flood-opacity="1"
         flood-color="rgb(0,0,0)"
         result="flood"
         id="feFlood5002" />
      <feComposite
         in="flood"
         in2="SourceGraphic"
         operator="in"
         result="composite1"
         id="feComposite5004" />
      <feGaussianBlur
         in="composite1"
         stdDeviation="3"
         result="blur"
         id="feGaussianBlur5006" />
      <feOffset
         dx="-1"
         dy="-1"
         result="offset"
         id="feOffset5008" />
      <feComposite
         in="SourceGraphic"
         in2="offset"
         operator="over"
         result="fbSourceGraphic"
         id="feComposite5010" />
      <feColorMatrix
         result="fbSourceGraphicAlpha"
         in="fbSourceGraphic"
         values="0 0 0 -1 0 0 0 0 -1 0 0 0 0 -1 0 0 0 0 1 0"
         id="feColorMatrix5060" />
      <feFlood
         id="feFlood5062"
         flood-opacity="1"
         flood-color="rgb(0,0,0)"
         result="flood"
         in="fbSourceGraphic" />
      <feComposite
         id="feComposite5064"
         in2="fbSourceGraphic"
         in="flood"
         operator="in"
         result="composite1" />
      <feGaussianBlur
         id="feGaussianBlur5066"
         in="composite1"
         stdDeviation="4"
         result="blur" />
      <feOffset
         id="feOffset5068"
         dx="3"
         dy="3"
         result="offset" />
      <feComposite
         id="feComposite5070"
         in2="offset"
         in="fbSourceGraphic"
         operator="over"
         result="composite2" />
    </filter>
    <filter
       style="color-interpolation-filters:sRGB"
       inkscape:label="Drop Shadow"
       id="filter5224">
      <feFlood
         flood-opacity="1"
         flood-color="rgb(0,0,0)"
         result="flood"
         id="feFlood5226" />
      <feComposite
         in="flood"
         in2="SourceGraphic"
         operator="in"
         result="composite1"
         id="feComposite5228" />
      <feGaussianBlur
         in="composite1"
         stdDeviation="3"
         result="blur"
         id="feGaussianBlur5230" />
      <feOffset
         dx="-1"
         dy="-1"
         result="offset"
         id="feOffset5232" />
      <feComposite
         in="SourceGraphic"
         in2="offset"
         operator="over"
         result="fbSourceGraphic"
         id="feComposite5234" />
      <feColorMatrix
         result="fbSourceGraphicAlpha"
         in="fbSourceGraphic"
         values="0 0 0 -1 0 0 0 0 -1 0 0 0 0 -1 0 0 0 0 1 0"
         id="feColorMatrix5272" />
      <feFlood
         id="feFlood5274"
         flood-opacity="1"
         flood-color="rgb(0,0,0)"
         result="flood"
         in="fbSourceGraphic" />
      <feComposite
         id="feComposite5276"
         in2="fbSourceGraphic"
         in="flood"
         operator="in"
         result="composite1" />
      <feGaussianBlur
         id="feGaussianBlur5278"
         in="composite1"
         stdDeviation="5"
         result="blur" />
      <feOffset
         id="feOffset5280"
         dx="5"
         dy="5"
         result="offset" />
      <feComposite
         id="feComposite5282"
         in2="offset"
         in="fbSourceGraphic"
         operator="over"
         result="composite2" />
    </filter>
    <filter
       style="color-interpolation-filters:sRGB"
       inkscape:label="Drop Shadow"
       id="filter5308">
      <feFlood
         flood-opacity="1"
         flood-color="rgb(0,0,0)"
         result="flood"
         id="feFlood5310" />
      <feComposite
         in="flood"
         in2="SourceGraphic"
         operator="in"
         result="composite1"
         id="feComposite5312" />
      <feGaussianBlur
         in="composite1"
         stdDeviation="5"
         result="blur"
         id="feGaussianBlur5314" />
      <feOffset
         dx="4"
         dy="4"
         result="offset"
         id="feOffset5316" />
      <feComposite
         in="SourceGraphic"
         in2="offset"
         operator="over"
         result="fbSourceGraphic"
         id="feComposite5318" />
      <feColorMatrix
         result="fbSourceGraphicAlpha"
         in="fbSourceGraphic"
         values="0 0 0 -1 0 0 0 0 -1 0 0 0 0 -1 0 0 0 0 1 0"
         id="feColorMatrix5500" />
      <feFlood
         id="feFlood5502"
         flood-opacity="1"
         flood-color="rgb(0,0,0)"
         result="flood"
         in="fbSourceGraphic" />
      <feComposite
         id="feComposite5504"
         in2="fbSourceGraphic"
         in="flood"
         operator="in"
         result="composite1" />
      <feGaussianBlur
         id="feGaussianBlur5506"
         in="composite1"
         stdDeviation="5"
         result="blur" />
      <feOffset
         id="feOffset5508"
         dx="-1"
         dy="-1"
         result="offset" />
      <feComposite
         id="feComposite5510"
         in2="offset"
         in="fbSourceGraphic"
         operator="over"
         result="composite2" />
    </filter>
    <filter
       style="color-interpolation-filters:sRGB;"
       inkscape:label="Drop Shadow"
       id="filter4270">
      <feFlood
         flood-opacity="1"
         flood-color="rgb(0,0,0)"
         result="flood"
         id="feFlood4272" />
      <feComposite
         in="flood"
         in2="SourceGraphic"
         operator="in"
         result="composite1"
         id="feComposite4274" />
      <feGaussianBlur
         in="composite1"
         stdDeviation="5"
         result="blur"
         id="feGaussianBlur4276" />
      <feOffset
         dx="4"
         dy="4"
         result="offset"
         id="feOffset4278" />
      <feComposite
         in="SourceGraphic"
         in2="offset"
         operator="over"
         result="composite2"
         id="feComposite4280" />
    </filter>
  </defs>
  <sodipodi:namedview
     pagecolor="#ffffff"
     bordercolor="#666666"
     borderopacity="1"
     objecttolerance="10"
     gridtolerance="10"
     guidetolerance="10"
     inkscape:pageopacity="0"
     inkscape:pageshadow="2"
     inkscape:window-width="1438"
     inkscape:window-height="879"
     id="namedview4"
     showgrid="false"
     fit-margin-top="0"
     fit-margin-left="0"
     fit-margin-right="0"
     fit-margin-bottom="0"
     inkscape:zoom="1.1954752"
     inkscape:cx="282.66169"
     inkscape:cy="167.05127"
     inkscape:window-x="0"
     inkscape:window-y="19"
     inkscape:window-maximized="0"
     inkscape:current-layer="svg2" />
  <flowRoot
     xml:space="preserve"
     id="flowRoot4138"
     style="font-style:normal;font-variant:normal;font-weight:normal;font-stretch:normal;font-size:16.25px;line-height:125%;font-family:'Bitstream Vera Sans Bold';-inkscape-font-specification:'Bitstream Vera Sans Bold, ';text-align:start;letter-spacing:0px;word-spacing:0px;writing-mode:lr-tb;text-anchor:start;fill:#000000;fill-opacity:1;stroke:none;stroke-width:1px;stroke-linecap:butt;stroke-linejoin:miter;stroke-opacity:1"
     transform="translate(-495.61446,809.60591)"><flowRegion
       id="flowRegion4140"><rect
         id="rect4142"
         width="1115.1783"
         height="159.047"
         x="53.63213"
         y="70.573952"
         style="font-style:normal;font-variant:normal;font-weight:normal;font-stretch:normal;font-family:'Bitstream Vera Sans Bold';-inkscape-font-specification:'Bitstream Vera Sans Bold, '" /></flowRegion><flowPara
       id="flowPara4144" /></flowRoot>  <flowRoot
     xml:space="preserve"
     id="flowRoot4146"
     style="font-style:oblique;font-variant:normal;font-weight:bold;font-stretch:normal;font-size:16.25px;line-height:125%;font-family:'Bitstream Vera Sans';-inkscape-font-specification:'Bitstream Vera Sans Bold Oblique';text-align:start;letter-spacing:0px;word-spacing:0px;writing-mode:lr-tb;text-anchor:start;fill:#000000;fill-opacity:1;stroke:none;stroke-width:1px;stroke-linecap:butt;stroke-linejoin:miter;stroke-opacity:1"
     transform="translate(-495.61446,809.60591)"><flowRegion
       id="flowRegion4148"><rect
         id="rect4150"
         width="1172.5093"
         height="153.49886"
         x="61.029663"
         y="59.477646"
         style="font-style:oblique;font-variant:normal;font-weight:bold;font-stretch:normal;font-family:'Bitstream Vera Sans';-inkscape-font-specification:'Bitstream Vera Sans Bold Oblique'" /></flowRegion><flowPara
       id="flowPara4152" /></flowRoot>  <flowRoot
     xml:space="preserve"
     id="flowRoot4154"
     style="font-style:oblique;font-variant:normal;font-weight:bold;font-stretch:normal;font-size:16.25px;line-height:125%;font-family:'Bitstream Vera Sans';-inkscape-font-specification:'Bitstream Vera Sans Bold Oblique';text-align:start;letter-spacing:0px;word-spacing:0px;writing-mode:lr-tb;text-anchor:start;fill:#1e909b;fill-opacity:0.11954106;stroke:none;stroke-width:1px;stroke-linecap:butt;stroke-linejoin:miter;stroke-opacity:1"
     transform="translate(-495.61446,809.60591)"><flowRegion
       id="flowRegion4156"><rect
         id="rect4158"
         width="419.81012"
         height="194.18529"
         x="62.879047"
         y="81.67025"
         style="font-style:oblique;font-variant:normal;font-weight:bold;font-stretch:normal;font-family:'Bitstream Vera Sans';-inkscape-font-specification:'Bitstream Vera Sans Bold Oblique';fill:#1e909b;fill-opacity:0.11954106" /></flowRegion><flowPara
       id="flowPara4160" /></flowRoot>  <flowRoot
     xml:space="preserve"
     id="flowRoot4162"
     style="font-style:oblique;font-variant:normal;font-weight:bold;font-stretch:normal;font-size:16.25px;line-height:125%;font-family:'Bitstream Vera Sans';-inkscape-font-specification:'Bitstream Vera Sans Bold Oblique';text-align:start;letter-spacing:0px;word-spacing:0px;writing-mode:lr-tb;text-anchor:start;fill:#000000;fill-opacity:1;stroke:none;stroke-width:1px;stroke-linecap:butt;stroke-linejoin:miter;stroke-opacity:1"
     transform="translate(-495.61446,809.60591)"><flowRegion
       id="flowRegion4164"><rect
         id="rect4166"
         width="972.77588"
         height="210.82974"
         x="79.523499"
         y="-208.683"
         style="font-style:oblique;font-variant:normal;font-weight:bold;font-stretch:normal;font-family:'Bitstream Vera Sans';-inkscape-font-specification:'Bitstream Vera Sans Bold Oblique'" /></flowRegion><flowPara
       id="flowPara4168" /></flowRoot>  <rect
     style="color:#000000;clip-rule:nonzero;display:inline;overflow:visible;visibility:visible;opacity:1;isolation:auto;mix-blend-mode:normal;color-interpolation:sRGB;color-interpolation-filters:linearRGB;solid-color:#000000;solid-opacity:1;fill:#ffffff;fill-opacity:1;fill-rule:nonzero;stroke:none;stroke-width:2;stroke-linecap:round;stroke-linejoin:round;stroke-miterlimit:4;stroke-dasharray:none;stroke-dashoffset:0;stroke-opacity:1;marker:none;color-rendering:auto;image-rendering:auto;shape-rendering:auto;text-rendering:auto;enable-background:accumulate"
     id="rect4387"
     width="615.20935"
     height="148.92641"
     x="0"
     y="0" />
  <rect
     style="color:#000000;clip-rule:nonzero;display:inline;overflow:visible;visibility:visible;opacity:1;isolation:auto;mix-blend-mode:normal;color-interpolation:sRGB;color-interpolation-filters:linearRGB;solid-color:#000000;solid-opacity:1;fill:url(#linearGradient4186);fill-opacity:1;fill-rule:nonzero;stroke:none;stroke-width:2;stroke-linecap:round;stroke-linejoin:round;stroke-miterlimit:4;stroke-dasharray:none;stroke-dashoffset:0;stroke-opacity:1;marker:none;color-rendering:auto;image-rendering:auto;shape-rendering:auto;text-rendering:auto;enable-background:accumulate;filter:url(#filter4270)"
     id="rect4178"
     width="605.31262"
     height="137.2874"
     x="4.9483757"
     y="5.8195066"
     rx="0"
     ry="0" />
  <rect
     style="color:#000000;clip-rule:nonzero;display:inline;overflow:visible;visibility:visible;opacity:1;isolation:auto;mix-blend-mode:normal;color-interpolation:sRGB;color-interpolation-filters:linearRGB;solid-color:#000000;solid-opacity:1;fill:url(#linearGradient4385);fill-opacity:1;fill-rule:nonzero;stroke:none;stroke-width:2;stroke-linecap:round;stroke-linejoin:round;stroke-miterlimit:4;stroke-dasharray:none;stroke-dashoffset:0;stroke-opacity:1;marker:none;filter:url(#filter5308);color-rendering:auto;image-rendering:auto;shape-rendering:auto;text-rendering:auto;enable-background:accumulate"
     id="rect4377"
     width="584.71948"
     height="118.56638"
     x="15.24493"
     y="15.180011" />
  <g
     id="g5521"
     transform="matrix(0.6240336,0,0,0.6240336,-168.74867,534.44056)">
    <g
       id="g5468">
      <path
         style="font-style:oblique;font-variant:normal;font-weight:bold;font-stretch:normal;font-size:131.25px;line-height:125%;font-family:'Bitstream Vera Sans';-inkscape-font-specification:'Bitstream Vera Sans Bold Oblique';text-align:start;letter-spacing:-0.75px;word-spacing:0px;writing-mode:lr-tb;text-anchor:start;fill:#90fff8;fill-opacity:1;stroke:none;stroke-width:1px;stroke-linecap:butt;stroke-linejoin:miter;stroke-opacity:1"
         d="m 390.125,-778.39062 c -6.65479,-0.12516 -13.57453,2.8785 -18.83984,5.68164 -1.74848,-6.14686 -9.77982,-3.82621 -14.42578,-3.81055 -5.47642,0.19258 -11.60368,-1.65699 -16.55469,1.53711 -5.06909,26.02903 -10.13336,52.05899 -15.20313,78.08789 10.36719,0 20.73438,0 31.10156,0 4.38275,-16.38646 4.43519,-34.02349 11.69141,-49.52344 2.8147,-4.62519 10.81889,-9.57622 15.2832,-4.80664 2.05862,7.41651 -2.4253,14.63761 -2.73838,22.09122 -2.07947,10.74627 -4.15828,21.49267 -6.23818,32.23886 10.39714,0 20.79427,0 31.19141,0 2.89005,-20.51677 10.05559,-40.80848 10.23242,-61.76172 -1.14553,-11.74689 -12.38777,-20.65021 -24.03906,-19.74219 l -0.99999,0.005 -0.46095,0.002 z"
         id="path5297"
         inkscape:connector-curvature="0" />
      <path
         style="font-style:oblique;font-variant:normal;font-weight:bold;font-stretch:normal;font-size:131.25px;line-height:125%;font-family:'Bitstream Vera Sans';-inkscape-font-specification:'Bitstream Vera Sans Bold Oblique';text-align:start;letter-spacing:-0.75px;word-spacing:0px;writing-mode:lr-tb;text-anchor:start;fill:#90fff8;fill-opacity:1;stroke:none;stroke-width:1px;stroke-linecap:butt;stroke-linejoin:miter;stroke-opacity:1"
         d="m 465.40625,-778.38672 c -10.69406,0.15303 -21.36106,1.6409 -31.70313,4.36133 -1.83125,9.2443 -3.66082,18.48894 -5.48632,27.73437 13.07889,-6.55334 28.84512,-12.40783 43.16406,-6.52539 2.01089,2.40704 -0.0349,2.49203 -2.37476,1.9418 -16.47946,-0.39736 -36.3016,0.76492 -47.03344,15.1793 -8.37776,11.61666 -6.60947,31.50474 7.50976,37.82812 10.52955,4.92932 23.61641,3.14062 33.07031,-2.67969 2.21968,5.99528 10.17182,3.33192 14.94336,3.42969 5.21087,-0.16251 13.02448,2.54111 16.18555,-3.0625 2.729,-18.69461 9.28943,-37.02637 9.10352,-56.09179 -1.20163,-11.90537 -12.22584,-20.29803 -23.66797,-21.26758 -4.52735,-0.74832 -9.12957,-0.91336 -13.71094,-0.84766 z m 2.41797,49.03516 c 0.68873,1.27526 -2.00468,5.35424 -3.42774,6.91015 -3.54297,4.15448 -13.30547,6.81668 -15.85156,0.54883 0.22888,-9.43425 13.2364,-6.67559 19.2793,-7.45898 z"
         id="path5299"
         inkscape:connector-curvature="0" />
      <path
         style="font-style:oblique;font-variant:normal;font-weight:bold;font-stretch:normal;font-size:131.25px;line-height:125%;font-family:'Bitstream Vera Sans';-inkscape-font-specification:'Bitstream Vera Sans Bold Oblique';text-align:start;letter-spacing:-0.75px;word-spacing:0px;writing-mode:lr-tb;text-anchor:start;fill:#90fff8;fill-opacity:1;stroke:none;stroke-width:1px;stroke-linecap:butt;stroke-linejoin:miter;stroke-opacity:1"
         d="m 570.87695,-778.39062 c -6.65072,-0.12452 -13.56879,2.88538 -18.82812,5.67968 -1.75215,-6.14441 -9.7795,-3.82438 -14.42578,-3.80859 -5.47708,0.19243 -11.60484,-1.65661 -16.55664,1.53711 -5.06851,26.02901 -10.13193,52.05902 -15.20118,78.08789 10.36914,0 20.73829,0 31.10743,0 4.35544,-16.37375 4.45507,-34.01134 11.6289,-49.42774 2.85615,-4.6324 10.5899,-9.57407 15.24805,-5.04687 2.32116,7.42549 -2.38061,14.73157 -2.64663,22.2377 -2.07945,10.74562 -4.1583,21.49136 -6.23814,32.23691 10.39454,0 20.78907,0 31.1836,0 3.03883,-20.27891 9.56372,-40.13865 10.3457,-60.69336 -0.6607,-11.65062 -11.19311,-21.29556 -22.89062,-20.77149 -0.90805,-0.0467 -1.81768,-0.0481 -2.72657,-0.0312 z"
         id="path5301"
         inkscape:connector-curvature="0" />
      <path
         style="font-style:oblique;font-variant:normal;font-weight:bold;font-stretch:normal;font-size:131.25px;line-height:125%;font-family:'Bitstream Vera Sans';-inkscape-font-specification:'Bitstream Vera Sans Bold Oblique';text-align:start;letter-spacing:-0.75px;word-spacing:0px;writing-mode:lr-tb;text-anchor:start;fill:#90fff8;fill-opacity:1;stroke:none;stroke-width:1px;stroke-linecap:butt;stroke-linejoin:miter;stroke-opacity:1"
         d="m 650.44531,-778.42773 c -22.88336,-0.98978 -44.58523,16.25501 -49.07812,38.67382 -3.76757,14.68304 1.07786,32.93457 15.60547,39.84375 22.17374,11.25384 52.68805,2.97951 64.96875,-19.02148 8.97581,-14.70434 10.49282,-36.32509 -2.35547,-49.2832 -7.6687,-7.3962 -18.69825,-10.3844 -29.14063,-10.21289 z m -0.36523,24.38085 c 8.13224,1.17955 7.39952,11.40394 6.20703,17.49415 -1.18259,9.23619 -9.37106,19.84411 -19.625,16.5957 -7.21981,-5.12483 -4.31377,-15.62517 -2.04297,-22.70313 2.4363,-6.52929 8.10072,-12.05688 15.46094,-11.38672 z"
         id="path5303"
         inkscape:connector-curvature="0" />
      <path
         style="font-style:oblique;font-variant:normal;font-weight:bold;font-stretch:normal;font-size:131.25px;line-height:125%;font-family:'Bitstream Vera Sans';-inkscape-font-specification:'Bitstream Vera Sans Bold Oblique';text-align:start;letter-spacing:-0.75px;word-spacing:0px;writing-mode:lr-tb;text-anchor:start;fill:#90fff8;fill-opacity:1;stroke:none;stroke-width:1px;stroke-linecap:butt;stroke-linejoin:miter;stroke-opacity:1"
         d="m 731.4668,-778.37695 c -13.80183,-0.12873 -30.55585,5.0906 -35.39844,19.4414 -4.57455,11.92035 0.84972,27.56939 13.58008,31.60743 6.99854,3.42854 15.88787,2.57005 22.24023,6.62304 -4.51476,3.77493 -11.62163,2.16858 -17.13672,2.00196 -8.49371,-1.02616 -16.74552,-4.45993 -23.87304,-9.33399 -1.74789,9.08482 -3.49295,18.17018 -5.23633,27.25586 20.68853,5.9189 44.74649,9.98099 64.375,-1.30273 12.45626,-7.88869 17.2465,-28.05918 5.85547,-38.80664 -8.78094,-8.31834 -22.90078,-7.84549 -32.61524,-12.1543 8.97574,-4.32418 19.74732,-1.38104 28.75391,1.75586 3.43841,1.28967 6.74183,2.90002 10.04687,4.49218 1.68636,-8.84164 3.37131,-17.68355 5.05664,-26.52539 -11.56159,-3.38047 -23.58076,-5.33246 -35.64843,-5.05468 z"
         id="path5305"
         inkscape:connector-curvature="0" />
      <path
         style="font-style:oblique;font-variant:normal;font-weight:bold;font-stretch:normal;font-size:131.25px;line-height:125%;font-family:'Bitstream Vera Sans';-inkscape-font-specification:'Bitstream Vera Sans Bold Oblique';text-align:start;letter-spacing:-0.75px;word-spacing:0px;writing-mode:lr-tb;text-anchor:start;fill:#90fff8;fill-opacity:1;stroke:none;stroke-width:1px;stroke-linecap:butt;stroke-linejoin:miter;stroke-opacity:1"
         d="m 819.69531,-778.38867 c -23.278,-0.89599 -46.07273,15.73713 -51.04297,38.73242 -3.99746,14.16188 -0.085,32.18231 13.95313,39.2793 14.86287,7.89561 33.11597,6.27162 48.52148,0.92968 4.87137,-2.8138 2.3372,-9.63348 4.43677,-13.94277 1.07617,-5.73136 2.15037,-11.46309 3.22925,-17.19394 -9.51608,7.69635 -23.88493,15.62533 -35.69336,8.26953 -9.50477,-12.0356 1.79124,-32.3197 16.9707,-31.58399 7.06567,-0.57576 13.35499,3.4579 19.1211,6.41602 5.59703,-1.12126 4.45618,-8.81399 5.44726,-12.9668 0.8511,-4.4036 4.47699,-10.94236 -0.95508,-13.98242 -7.60742,-2.68041 -15.89064,-4.10626 -23.98828,-3.95703 z"
         id="path5307"
         inkscape:connector-curvature="0" />
      <path
         style="font-style:oblique;font-variant:normal;font-weight:bold;font-stretch:normal;font-size:131.25px;line-height:125%;font-family:'Bitstream Vera Sans';-inkscape-font-specification:'Bitstream Vera Sans Bold Oblique';text-align:start;letter-spacing:-0.75px;word-spacing:0px;writing-mode:lr-tb;text-anchor:start;fill:#90fff8;fill-opacity:1;stroke:none;stroke-width:1px;stroke-linecap:butt;stroke-linejoin:miter;stroke-opacity:1"
         d="m 907.62695,-778.38672 c -6.58567,0.11627 -13.14286,2.08246 -18.66406,5.6836 -1.7426,-6.14789 -9.77744,-3.84106 -14.42383,-3.81641 -5.47641,0.19258 -11.60367,-1.65699 -16.55468,1.53711 -5.06851,26.02901 -10.13193,52.05902 -15.20118,78.08789 10.36003,0 20.72006,0 31.08008,0 4.38631,-15.89567 4.21295,-33.19691 11.67578,-48.05078 6.44064,-8.97037 20.49456,-8.78015 28.3711,-1.75781 1.98821,-10.22333 3.97424,-20.44707 5.96484,-30.66993 -4.07371,-0.39564 -8.14082,-1.13109 -12.24805,-1.01367 z"
         id="path5309"
         inkscape:connector-curvature="0" />
      <path
         style="font-style:oblique;font-variant:normal;font-weight:bold;font-stretch:normal;font-size:131.25px;line-height:125%;font-family:'Bitstream Vera Sans';-inkscape-font-specification:'Bitstream Vera Sans Bold Oblique';text-align:start;letter-spacing:-0.75px;word-spacing:0px;writing-mode:lr-tb;text-anchor:start;fill:#90fff8;fill-opacity:1;stroke:none;stroke-width:1px;stroke-linecap:butt;stroke-linejoin:miter;stroke-opacity:1"
         d="m 927.49219,-803 c -1.65255,8.35793 -3.32272,16.73448 -4.98242,25.09961 10.43294,0 20.86588,0 31.29882,0 1.7399,-8.90411 3.47864,-17.80844 5.2168,-26.71289 -10.40495,0 -20.8099,0 -31.21484,0 l -0.19361,0.98108 -0.12475,0.6322 z m -5.38867,27.94531 c -5.07052,26.05346 -10.14153,52.10713 -15.21485,78.16016 10.38542,0 20.77084,0 31.15625,0 5.20172,-26.59221 10.39999,-53.1851 15.60156,-79.77735 -10.4095,10e-6 -20.81901,0 -31.22851,0 l -0.19087,0.98162 -0.12358,0.63557 z"
         id="path5311"
         inkscape:connector-curvature="0" />
      <path
         style="font-style:oblique;font-variant:normal;font-weight:bold;font-stretch:normal;font-size:131.25px;line-height:125%;font-family:'Bitstream Vera Sans';-inkscape-font-specification:'Bitstream Vera Sans Bold Oblique';text-align:start;letter-spacing:-0.75px;word-spacing:0px;writing-mode:lr-tb;text-anchor:start;fill:#90fff8;fill-opacity:1;stroke:none;stroke-width:1px;stroke-linecap:butt;stroke-linejoin:miter;stroke-opacity:1"
         d="m 1014.8535,-778.43359 c -6.1397,-0.23312 -12.5475,2.1738 -17.46873,4.90039 -2.47736,-5.34375 -9.87091,-2.69864 -14.41211,-2.97461 -5.41408,0.62412 -13.46159,-2.87626 -16.81641,3.07031 -6.74052,34.61453 -13.47878,69.2295 -20.2207,103.84375 10.39778,0 20.79557,0 31.19336,0 2.47871,-10.48369 3.73636,-22.28598 6.63086,-31.99805 13.61832,11.7514 35.46843,6.7045 46.48823,-6.25976 13.8766,-14.89601 19.5268,-38.8299 9.8028,-57.34375 -5.2064,-8.57577 -15.2793,-13.49567 -25.1973,-13.23828 z m -8.2031,24.65429 c 7.8977,1.23843 7.0867,11.1745 5.9648,17.05274 -1.2204,8.88535 -8.5704,19.39913 -18.68942,16.65429 -7.39558,-4.20913 -4.54665,-14.27449 -2.83008,-20.92578 2.11903,-6.91306 7.70815,-13.5663 15.5547,-12.78125 z"
         id="path5313"
         inkscape:connector-curvature="0" />
      <path
         style="font-style:oblique;font-variant:normal;font-weight:bold;font-stretch:normal;font-size:131.25px;line-height:125%;font-family:'Bitstream Vera Sans';-inkscape-font-specification:'Bitstream Vera Sans Bold Oblique';text-align:start;letter-spacing:-0.75px;word-spacing:0px;writing-mode:lr-tb;text-anchor:start;fill:#90fff8;fill-opacity:1;stroke:none;stroke-width:1px;stroke-linecap:butt;stroke-linejoin:miter;stroke-opacity:1"
         d="m 1065.9531,-795.43359 c -1.5432,6.06201 -1.9013,13.62241 -4.2109,18.72265 -4.8237,-0.77725 -12.5383,-0.13279 -12.5606,6.35547 1.5845,5.72756 -5.0649,12.13365 -0.8476,17.24219 2.4781,2.84047 8.4513,-2.28956 8.9844,2.07422 -1.413,12.45005 -7.036,24.79616 -5.1986,37.55566 1.3636,10.76478 12.5472,16.65659 22.5462,16.5459 6.9889,0.15078 14.013,-0.0159 20.9082,0.43555 7.104,-2.28912 5.2736,-11.4952 7.5391,-17.04688 1.6696,-4.36108 -1.7587,-9.66263 -6.711,-8.19922 -4.2165,0.1283 -9.0884,1.48179 -13.0058,-0.31445 0.6418,-10.0805 3.7704,-20.08627 5.4043,-30.20312 7.7982,0 15.5963,0 23.3945,0 1.6201,-8.13549 3.2402,-16.27097 4.8613,-24.40626 -7.83,10e-6 -15.6601,0 -23.4902,0 1.3025,-6.79301 2.6071,-13.58562 3.9082,-20.3789 -10.4023,0 -20.8047,0 -31.207,0 l -0.1909,0.98161 -0.1236,0.63558 z"
         id="path5315"
         inkscape:connector-curvature="0" />
      <path
         style="font-style:oblique;font-variant:normal;font-weight:bold;font-stretch:normal;font-size:131.25px;line-height:125%;font-family:'Bitstream Vera Sans';-inkscape-font-specification:'Bitstream Vera Sans Bold Oblique';text-align:start;letter-spacing:-0.75px;word-spacing:0px;writing-mode:lr-tb;text-anchor:start;fill:#90fff8;fill-opacity:1;stroke:none;stroke-width:1px;stroke-linecap:butt;stroke-linejoin:miter;stroke-opacity:1"
         d="m 1149.9395,-778.37695 c -13.8023,-0.12992 -30.5545,5.09183 -35.3985,19.4414 -4.5735,11.92034 0.8508,27.56791 13.5801,31.60743 6.9744,3.4603 16.0495,2.53068 22.2617,6.68359 -5.4812,3.82697 -13.1229,2.19493 -19.4863,1.58398 -7.7577,-1.29639 -15.0647,-4.57197 -21.541,-8.98242 -1.7468,9.08711 -3.4947,18.174 -5.2383,27.26172 20.6878,5.91871 44.7451,9.98141 64.373,-1.30273 12.4464,-7.88056 17.2472,-28.03349 5.875,-38.78125 -8.9166,-8.24835 -22.3071,-7.9762 -32.7675,-12 6.6928,-4.04823 15.5041,-2.05264 22.6738,-0.46094 5.6577,1.52456 11.0189,3.94638 16.2617,6.52734 1.687,-8.84086 3.3712,-17.68227 5.0566,-26.52344 -11.5619,-3.37975 -23.5824,-5.33336 -35.6503,-5.05468 z"
         id="path5317"
         inkscape:connector-curvature="0" />
    </g>
    <flowRoot
       transform="translate(137.28365,-610.08858)"
       style="font-style:normal;font-variant:normal;font-weight:normal;font-stretch:normal;font-size:125px;line-height:125%;font-family:Sans;-inkscape-font-specification:'Sans, Normal';text-align:start;letter-spacing:0px;word-spacing:0px;writing-mode:lr-tb;text-anchor:start;fill:#000000;fill-opacity:1;stroke:none;stroke-width:1px;stroke-linecap:butt;stroke-linejoin:miter;stroke-opacity:1"
       id="flowRoot4170-9"
       xml:space="preserve"><flowRegion
         id="flowRegion4172-9"><rect
           style="font-size:125px;fill:#000000"
           y="-221.62868"
           x="188.63715"
           height="221.92604"
           width="1100.3833"
           id="rect4174-1" /></flowRegion><flowPara
         style="font-style:oblique;font-variant:normal;font-weight:bold;font-stretch:normal;font-size:131.25px;font-family:'Bitstream Vera Sans';-inkscape-font-specification:'Bitstream Vera Sans Bold Oblique';letter-spacing:-0.75px;fill:#000000;fill-opacity:1"
         id="flowPara4176-4">nanoscripts</flowPara></flowRoot>  </g>
</svg>
